<svg xmlns="http://www.w3.org/2000/svg" viewBox="0 0 24.45 24.09"><defs><style>.cls-1{fill:#734a91;}</style></defs><g id="Capa_2" data-name="Capa 2"><g id="Capa_1-2" data-name="Capa 1"><path class="cls-1" d="M12.47,12.9a1.21,1.21,0,0,0-.38-.33,4.27,4.27,0,0,0-5.17.83,8.53,8.53,0,0,1-3.54,2,4.47,4.47,0,0,0-3.14,3,4.66,4.66,0,0,0,.59,4.13,2,2,0,0,0,.19.22c.62.57,3.81,3.07,9.44-.8S13.19,13.82,12.47,12.9ZM4.2,16.45s-1.13-.24-.27-.5a3.39,3.39,0,0,0,2-1.09s.64-.8.91-.48S6.21,16.1,4.2,16.45Z"/><path class="cls-1" d="M18.11,0a1.53,1.53,0,0,1,.6,0c.92.25,3.49,1.29,3.7,5.06a10.4,10.4,0,0,0,1.28,4.73A5.34,5.34,0,0,1,23.87,15a5.59,5.59,0,0,1-4,3,2,2,0,0,1-.35,0c-1,0-5.83-.6-7.35-8.64S16.72.19,18.11,0Zm4.05,10s1.16.75.64-.19A4.08,4.08,0,0,1,22,7.17S22.13,6,21.62,6,20.74,8,22.16,10Z"/></g></g></svg>